<?xml version="1.0" encoding="UTF-8"?>
<!--
  - Licensed to the Apache Software Foundation (ASF) under one or more
  - contributor license agreements.  See the NOTICE file distributed with
  - this work for additional information regarding copyright ownership.
  - The ASF licenses this file to You under the Apache License, Version 2.0
  - (the "License"); you may not use this file except in compliance with
  - the License.  You may obtain a copy of the License at
  -
  -      http://www.apache.org/licenses/LICENSE-2.0
  -
  - Unless required by applicable law or agreed to in writing, software
  - distributed under the License is distributed on an "AS IS" BASIS,
  - WITHOUT WARRANTIES OR CONDITIONS OF ANY KIND, either express or implied.
  - See the License for the specific language governing permissions and
  - limitations under the License.
  -
  -->

<svg xmlns="http://www.w3.org/2000/svg" fill-opacity="1" color-rendering="auto"
     color-interpolation="auto"
     text-rendering="auto"
     stroke="black"
     stroke-linecap="square"
     width="1960"
     stroke-miterlimit="10"
     shape-rendering="auto"
     stroke-opacity="1"
     fill="black"
     stroke-dasharray="none"
     font-weight="normal"
     stroke-width="1"
     height="520"
     font-family="'Dialog'"
     font-style="normal"
     stroke-linejoin="miter"
     font-size="12px"
     stroke-dashoffset="0"
     image-rendering="auto"><!--Generated by the Batik Graphics2D SVG Generator--><defs id="genericDefs"/>
   <g>
      <g fill="white" font-size="10px" font-family="'FreeSans'" stroke="white">
         <rect x="0" width="1960" height="520" y="0" stroke="none"/>
      </g>
      <g font-size="10px" fill="white" text-rendering="geometricPrecision"
         image-rendering="optimizeQuality"
         color-rendering="optimizeQuality"
         font-family="'FreeSans'"
         stroke="white"
         color-interpolation="linearRGB">
         <rect x="0" width="1860" height="420" y="0" stroke="none"/>
      </g>
      <g stroke-linecap="butt" font-size="10px" fill="rgb(61,99,128)"
         text-rendering="geometricPrecision"
         image-rendering="optimizeQuality"
         color-rendering="optimizeQuality"
         font-family="'FreeSans'"
         stroke="rgb(61,99,128)"
         color-interpolation="linearRGB"
         stroke-miterlimit="2">
         <line y2="176" fill="none" x1="176" x2="336" y1="176"/>
         <g xmlns:cc="http://creativecommons.org/ns#"
            xmlns:inkscape="http://www.inkscape.org/namespaces/inkscape"
            xmlns:rdf="http://www.w3.org/1999/02/22-rdf-syntax-ns#"
            xmlns:sodipodi="http://sodipodi.sourceforge.net/DTD/sodipodi-0.dtd"
            xmlns:dc="http://purl.org/dc/elements/1.1/"
            filename="ui/images/hop-arrow-default.svg"
            transform="translate(272 168) scale(1 1) rotate(90 8 8)"
            stroke="none">
            <path fill="#0e3a5a" d="m 8,0 -4,16 4,-2 4,2"/>
         </g>
         <line y2="176" fill="none" x1="336" x2="496" y1="176"/>
         <g xmlns:cc="http://creativecommons.org/ns#"
            xmlns:inkscape="http://www.inkscape.org/namespaces/inkscape"
            xmlns:rdf="http://www.w3.org/1999/02/22-rdf-syntax-ns#"
            xmlns:sodipodi="http://sodipodi.sourceforge.net/DTD/sodipodi-0.dtd"
            xmlns:dc="http://purl.org/dc/elements/1.1/"
            filename="ui/images/hop-arrow-default.svg"
            transform="translate(432 168) scale(1 1) rotate(90 8 8)"
            stroke="none">
            <path fill="#0e3a5a" d="m 8,0 -4,16 4,-2 4,2"/>
         </g>
         <line y2="176" fill="none" x1="496" x2="656" y1="176"/>
         <g xmlns:cc="http://creativecommons.org/ns#"
            xmlns:inkscape="http://www.inkscape.org/namespaces/inkscape"
            xmlns:rdf="http://www.w3.org/1999/02/22-rdf-syntax-ns#"
            xmlns:sodipodi="http://sodipodi.sourceforge.net/DTD/sodipodi-0.dtd"
            xmlns:dc="http://purl.org/dc/elements/1.1/"
            filename="ui/images/hop-arrow-default.svg"
            transform="translate(592 168) scale(1 1) rotate(90 8 8)"
            stroke="none">
            <path fill="#0e3a5a" d="m 8,0 -4,16 4,-2 4,2"/>
         </g>
         <line y2="336" fill="none" x1="176" x2="336" y1="336"/>
         <g xmlns:cc="http://creativecommons.org/ns#"
            xmlns:inkscape="http://www.inkscape.org/namespaces/inkscape"
            xmlns:rdf="http://www.w3.org/1999/02/22-rdf-syntax-ns#"
            xmlns:sodipodi="http://sodipodi.sourceforge.net/DTD/sodipodi-0.dtd"
            xmlns:dc="http://purl.org/dc/elements/1.1/"
            filename="ui/images/hop-arrow-default.svg"
            transform="translate(272 328) scale(1 1) rotate(90 8 8)"
            stroke="none">
            <path fill="#0e3a5a" d="m 8,0 -4,16 4,-2 4,2"/>
         </g>
         <line y2="176" fill="none" x1="656" x2="816" y1="176"/>
         <g xmlns:cc="http://creativecommons.org/ns#"
            xmlns:inkscape="http://www.inkscape.org/namespaces/inkscape"
            xmlns:rdf="http://www.w3.org/1999/02/22-rdf-syntax-ns#"
            xmlns:sodipodi="http://sodipodi.sourceforge.net/DTD/sodipodi-0.dtd"
            xmlns:dc="http://purl.org/dc/elements/1.1/"
            filename="ui/images/hop-arrow-default.svg"
            transform="translate(752 168) scale(1 1) rotate(90 8 8)"
            stroke="none">
            <path fill="#0e3a5a" d="m 8,0 -4,16 4,-2 4,2"/>
         </g>
         <line y2="336" fill="none" x1="336" x2="496" y1="336"/>
         <g xmlns:cc="http://creativecommons.org/ns#"
            xmlns:inkscape="http://www.inkscape.org/namespaces/inkscape"
            xmlns:rdf="http://www.w3.org/1999/02/22-rdf-syntax-ns#"
            xmlns:sodipodi="http://sodipodi.sourceforge.net/DTD/sodipodi-0.dtd"
            xmlns:dc="http://purl.org/dc/elements/1.1/"
            filename="ui/images/hop-arrow-default.svg"
            transform="translate(432 328) scale(1 1) rotate(90 8 8)"
            stroke="none">
            <path fill="#0e3a5a" d="m 8,0 -4,16 4,-2 4,2"/>
         </g>
         <line y2="336" fill="none" x1="496" x2="656" y1="336"/>
         <g xmlns:cc="http://creativecommons.org/ns#"
            xmlns:inkscape="http://www.inkscape.org/namespaces/inkscape"
            xmlns:rdf="http://www.w3.org/1999/02/22-rdf-syntax-ns#"
            xmlns:sodipodi="http://sodipodi.sourceforge.net/DTD/sodipodi-0.dtd"
            xmlns:dc="http://purl.org/dc/elements/1.1/"
            filename="ui/images/hop-arrow-default.svg"
            transform="translate(592 328) scale(1 1) rotate(90 8 8)"
            stroke="none">
            <path fill="#0e3a5a" d="m 8,0 -4,16 4,-2 4,2"/>
         </g>
         <line y2="176" fill="none" x1="816" x2="976" y1="176"/>
         <g xmlns:cc="http://creativecommons.org/ns#"
            xmlns:inkscape="http://www.inkscape.org/namespaces/inkscape"
            xmlns:rdf="http://www.w3.org/1999/02/22-rdf-syntax-ns#"
            xmlns:sodipodi="http://sodipodi.sourceforge.net/DTD/sodipodi-0.dtd"
            xmlns:dc="http://purl.org/dc/elements/1.1/"
            filename="ui/images/hop-arrow-default.svg"
            transform="translate(912 168) scale(1 1) rotate(90 8 8)"
            stroke="none">
            <path fill="#0e3a5a" d="m 8,0 -4,16 4,-2 4,2"/>
         </g>
         <line y2="336" fill="none" x1="656" x2="976" y1="336"/>
         <g xmlns:cc="http://creativecommons.org/ns#"
            xmlns:inkscape="http://www.inkscape.org/namespaces/inkscape"
            xmlns:rdf="http://www.w3.org/1999/02/22-rdf-syntax-ns#"
            xmlns:sodipodi="http://sodipodi.sourceforge.net/DTD/sodipodi-0.dtd"
            xmlns:dc="http://purl.org/dc/elements/1.1/"
            filename="ui/images/hop-arrow-default.svg"
            transform="translate(856 328) scale(1 1) rotate(90 8 8)"
            stroke="none">
            <path fill="#0e3a5a" d="m 8,0 -4,16 4,-2 4,2"/>
         </g>
         <g xmlns:cc="http://creativecommons.org/ns#"
            xmlns:inkscape="http://www.inkscape.org/namespaces/inkscape"
            xmlns:rdf="http://www.w3.org/1999/02/22-rdf-syntax-ns#"
            xmlns:sodipodi="http://sodipodi.sourceforge.net/DTD/sodipodi-0.dtd"
            xmlns:dc="http://purl.org/dc/elements/1.1/"
            filename="ui/images/info.svg"
            transform="translate(776 328) scale(0.667 0.667) rotate(0 12 12)"
            stroke="none">
            <circle r="10"
                    style="fill:#005ca7;fill-opacity:1;stroke-width:1.5115;stroke-linecap:round;stroke-linejoin:round"
                    cx="12"
                    cy="12"/>
            <path style="fill:#ffffff;fill-opacity:1;stroke:none;stroke-width:0.0351048;stroke-linecap:round;stroke-linejoin:round;stroke-miterlimit:4;stroke-dasharray:none;paint-order:markers fill stroke"
                  d="M 10.904762,6.6442141 V 5.4044268 h 1.302921 1.302923 v 1.2397873 1.2397877 h -1.302923 -1.302921 z"/>
            <path style="fill:#ffffff;stroke-width:0.0102815;stroke-linecap:round;stroke-linejoin:round"
                  d="m 9.6600275,18.320668 c -0.083372,-0.02599 -0.1725183,-0.121725 -0.1962792,-0.210808 -0.011975,-0.04473 -0.020233,-0.472227 -0.0203,-1.044927 -1.133e-4,-0.96305 1.792e-4,-0.969822 0.045867,-1.063698 0.08753,-0.179867 0.086668,-0.179689 0.9093497,-0.186925 l 0.720328,-0.0064 v -1.742549 -1.742587 l -0.720331,-0.0084 c -0.61994,-0.0073 -0.7334525,-0.01349 -0.81446,-0.04518 -0.1025542,-0.04013 -0.2165942,-0.143363 -0.2453209,-0.22206 -0.00999,-0.02736 -0.018167,-0.483037 -0.018167,-1.012601 V 10.071709 L 9.3733891,9.9616117 C 9.4302811,9.8427125 9.5027641,9.7689108 9.6350732,9.6951883 l 0.084117,-0.046875 h 1.7880478 c 1.751296,0 1.789473,8.334e-4 1.857435,0.042567 0.08927,0.054767 0.14318,0.1311158 0.166483,0.2357692 0.01062,0.047858 0.0188,1.2937835 0.01907,2.9195475 l 4.87e-4,2.83606 h 0.700673 c 0.686336,0 0.702514,10e-4 0.790665,0.04787 0.06125,0.03258 0.103413,0.07508 0.13205,0.13303 0.0408,0.0826 0.04205,0.116925 0.04205,1.149323 0,1.032407 -0.0013,1.066732 -0.04205,1.149324 -0.02864,0.05795 -0.07079,0.100413 -0.13205,0.133028 l -0.08999,0.04787 -2.616438,-0.0019 c -1.43904,-0.001 -2.6430649,-0.01025 -2.6756091,-0.02028 z"/>
         </g>
         <line y2="336" fill="none" x1="976" x2="976" y1="176"/>
         <g xmlns:cc="http://creativecommons.org/ns#"
            xmlns:inkscape="http://www.inkscape.org/namespaces/inkscape"
            xmlns:rdf="http://www.w3.org/1999/02/22-rdf-syntax-ns#"
            xmlns:sodipodi="http://sodipodi.sourceforge.net/DTD/sodipodi-0.dtd"
            xmlns:dc="http://purl.org/dc/elements/1.1/"
            filename="ui/images/hop-arrow-default.svg"
            transform="translate(968 273) scale(1 1) rotate(180 8 8)"
            stroke="none">
            <path fill="#0e3a5a" d="m 8,0 -4,16 4,-2 4,2"/>
         </g>
         <g xmlns:cc="http://creativecommons.org/ns#"
            xmlns:inkscape="http://www.inkscape.org/namespaces/inkscape"
            xmlns:rdf="http://www.w3.org/1999/02/22-rdf-syntax-ns#"
            xmlns:sodipodi="http://sodipodi.sourceforge.net/DTD/sodipodi-0.dtd"
            xmlns:dc="http://purl.org/dc/elements/1.1/"
            filename="ui/images/info.svg"
            transform="translate(968 232) scale(0.667 0.667) rotate(0 12 12)"
            stroke="none">
            <circle r="10"
                    style="fill:#005ca7;fill-opacity:1;stroke-width:1.5115;stroke-linecap:round;stroke-linejoin:round"
                    cx="12"
                    cy="12"/>
            <path style="fill:#ffffff;fill-opacity:1;stroke:none;stroke-width:0.0351048;stroke-linecap:round;stroke-linejoin:round;stroke-miterlimit:4;stroke-dasharray:none;paint-order:markers fill stroke"
                  d="M 10.904762,6.6442141 V 5.4044268 h 1.302921 1.302923 v 1.2397873 1.2397877 h -1.302923 -1.302921 z"/>
            <path style="fill:#ffffff;stroke-width:0.0102815;stroke-linecap:round;stroke-linejoin:round"
                  d="m 9.6600275,18.320668 c -0.083372,-0.02599 -0.1725183,-0.121725 -0.1962792,-0.210808 -0.011975,-0.04473 -0.020233,-0.472227 -0.0203,-1.044927 -1.133e-4,-0.96305 1.792e-4,-0.969822 0.045867,-1.063698 0.08753,-0.179867 0.086668,-0.179689 0.9093497,-0.186925 l 0.720328,-0.0064 v -1.742549 -1.742587 l -0.720331,-0.0084 c -0.61994,-0.0073 -0.7334525,-0.01349 -0.81446,-0.04518 -0.1025542,-0.04013 -0.2165942,-0.143363 -0.2453209,-0.22206 -0.00999,-0.02736 -0.018167,-0.483037 -0.018167,-1.012601 V 10.071709 L 9.3733891,9.9616117 C 9.4302811,9.8427125 9.5027641,9.7689108 9.6350732,9.6951883 l 0.084117,-0.046875 h 1.7880478 c 1.751296,0 1.789473,8.334e-4 1.857435,0.042567 0.08927,0.054767 0.14318,0.1311158 0.166483,0.2357692 0.01062,0.047858 0.0188,1.2937835 0.01907,2.9195475 l 4.87e-4,2.83606 h 0.700673 c 0.686336,0 0.702514,10e-4 0.790665,0.04787 0.06125,0.03258 0.103413,0.07508 0.13205,0.13303 0.0408,0.0826 0.04205,0.116925 0.04205,1.149323 0,1.032407 -0.0013,1.066732 -0.04205,1.149324 -0.02864,0.05795 -0.07079,0.100413 -0.13205,0.133028 l -0.08999,0.04787 -2.616438,-0.0019 c -1.43904,-0.001 -2.6430649,-0.01025 -2.6756091,-0.02028 z"/>
         </g>
         <line y2="336" fill="none" x1="976" x2="1136" y1="336"/>
         <g xmlns:cc="http://creativecommons.org/ns#"
            xmlns:inkscape="http://www.inkscape.org/namespaces/inkscape"
            xmlns:rdf="http://www.w3.org/1999/02/22-rdf-syntax-ns#"
            xmlns:sodipodi="http://sodipodi.sourceforge.net/DTD/sodipodi-0.dtd"
            xmlns:dc="http://purl.org/dc/elements/1.1/"
            filename="ui/images/hop-arrow-default.svg"
            transform="translate(1072 328) scale(1 1) rotate(90 8 8)"
            stroke="none">
            <path fill="#0e3a5a" d="m 8,0 -4,16 4,-2 4,2"/>
         </g>
         <line y2="336" fill="none" x1="1136" x2="1296" y1="336"/>
         <g xmlns:cc="http://creativecommons.org/ns#"
            xmlns:inkscape="http://www.inkscape.org/namespaces/inkscape"
            xmlns:rdf="http://www.w3.org/1999/02/22-rdf-syntax-ns#"
            xmlns:sodipodi="http://sodipodi.sourceforge.net/DTD/sodipodi-0.dtd"
            xmlns:dc="http://purl.org/dc/elements/1.1/"
            filename="ui/images/hop-arrow-default.svg"
            transform="translate(1232 328) scale(1 1) rotate(90 8 8)"
            stroke="none">
            <path fill="#0e3a5a" d="m 8,0 -4,16 4,-2 4,2"/>
         </g>
         <line y2="336" fill="none" x1="1296" x2="1456" y1="336"/>
         <g xmlns:cc="http://creativecommons.org/ns#"
            xmlns:inkscape="http://www.inkscape.org/namespaces/inkscape"
            xmlns:rdf="http://www.w3.org/1999/02/22-rdf-syntax-ns#"
            xmlns:sodipodi="http://sodipodi.sourceforge.net/DTD/sodipodi-0.dtd"
            xmlns:dc="http://purl.org/dc/elements/1.1/"
            filename="ui/images/hop-arrow-default.svg"
            transform="translate(1392 328) scale(1 1) rotate(90 8 8)"
            stroke="none">
            <path fill="#0e3a5a" d="m 8,0 -4,16 4,-2 4,2"/>
         </g>
         <line y2="336" fill="none" x1="1456" x2="1616" y1="336"/>
         <g xmlns:cc="http://creativecommons.org/ns#"
            xmlns:inkscape="http://www.inkscape.org/namespaces/inkscape"
            xmlns:rdf="http://www.w3.org/1999/02/22-rdf-syntax-ns#"
            xmlns:sodipodi="http://sodipodi.sourceforge.net/DTD/sodipodi-0.dtd"
            xmlns:dc="http://purl.org/dc/elements/1.1/"
            filename="ui/images/hop-arrow-default.svg"
            transform="translate(1552 328) scale(1 1) rotate(90 8 8)"
            stroke="none">
            <path fill="#0e3a5a" d="m 8,0 -4,16 4,-2 4,2"/>
         </g>
         <line y2="336" fill="none" x1="1616" x2="1776" y1="336"/>
         <g xmlns:cc="http://creativecommons.org/ns#"
            xmlns:inkscape="http://www.inkscape.org/namespaces/inkscape"
            xmlns:rdf="http://www.w3.org/1999/02/22-rdf-syntax-ns#"
            xmlns:sodipodi="http://sodipodi.sourceforge.net/DTD/sodipodi-0.dtd"
            xmlns:dc="http://purl.org/dc/elements/1.1/"
            filename="ui/images/hop-arrow-default.svg"
            transform="translate(1712 328) scale(1 1) rotate(90 8 8)"
            stroke="none">
            <path fill="#0e3a5a" d="m 8,0 -4,16 4,-2 4,2"/>
         </g>
         <rect x="159" y="159" fill="white" width="33" rx="4" ry="4" height="33" stroke="none"/>
         <g xmlns:cc="http://creativecommons.org/ns#"
            xmlns:inkscape="http://www.inkscape.org/namespaces/inkscape"
            xmlns:rdf="http://www.w3.org/1999/02/22-rdf-syntax-ns#"
            xmlns:sodipodi="http://sodipodi.sourceforge.net/DTD/sodipodi-0.dtd"
            xmlns:dc="http://purl.org/dc/elements/1.1/"
            filename="tableinput.svg"
            transform="translate(160 160) scale(0.762 0.762) rotate(0 21 21)"
            stroke="none">
            <g>
               <rect x="9.963" fill="none" width="6.758" y="17.386" height="7.411"/>
               <rect x="17.52" fill="none" width="7.412" y="17.386" height="7.411"/>
               <rect x="9.963" fill="none" width="6.758" y="25.597" height="6.75"/>
               <polygon fill="#0E3A5A"
                        points="37.235,32.836 37.235,35.918 32.011,30.693 30.667,32.037 35.892,37.263 32.747,37.263   32.748,39.164 39.135,39.161 39.135,32.836  "/>
               <polygon fill="#C9E8FB"
                        points="25.732,16.585 32.262,16.585 32.262,10.047 9.963,10.047 9.963,16.585 16.72,16.585 16.72,16.576   17.52,16.576 17.52,16.585 24.932,16.585 24.932,16.576 25.732,16.576  "/>
               <path fill="#0E3A5A"
                     d="M31.477,24.797h-5.745v-7.411h6.53v6.625l1.7-1.7V8.347h-25.7v25.699h13.964l1.699-1.699H17.52v-6.75h7.412   v5.744l0.8-0.8v-4.944h4.944L31.477,24.797z M16.72,32.347H9.963v-6.75h6.758V32.347z M16.72,24.797H9.963v-7.411h6.758V24.797z    M24.932,24.797H17.52v-7.411h7.412V24.797z M24.932,16.576v0.009H17.52v-0.009h-0.8v0.009H9.963v-6.538h22.3v6.538h-6.53v-0.009   H24.932z"/>
            </g>
         </g>
         <rect x="159" y="159" fill="none" width="33" rx="4" ry="4" height="33"/>
         <text fill="black" x="118" xml:space="preserve" y="208" stroke="none">source  CRM.customer_led</text>
         <rect x="319" y="159" fill="white" width="33" rx="4" ry="4" height="33" stroke="none"/>
         <g xmlns:cc="http://creativecommons.org/ns#"
            xmlns:inkscape="http://www.inkscape.org/namespaces/inkscape"
            xmlns:rdf="http://www.w3.org/1999/02/22-rdf-syntax-ns#"
            xmlns:sodipodi="http://sodipodi.sourceforge.net/DTD/sodipodi-0.dtd"
            xmlns:dc="http://purl.org/dc/elements/1.1/"
            filename="checksum.svg"
            transform="translate(320 160) scale(0.762 0.762) rotate(0 21 21)"
            stroke="none">
            <rect x="23.493" fill="none" width="8.18" y="15.276" height="4.976"/>
            <rect x="23.493" fill="none" width="8.18" y="21.052" height="4.847"/>
            <polygon fill="#0E3A5A"
                     points="15.823,22.902 18.785,25.865 9.198,25.865 9.198,27.064 18.841,27.064 15.827,30.023 16.668,30.879   21.123,26.505 16.671,22.055 "/>
            <polygon fill="#0E3A5A"
                     points="15.823,11.047 18.785,14.01 9.198,14.01 9.198,15.209 18.841,15.209 15.827,18.169 16.668,19.025   21.123,14.651 16.671,10.2 "/>
            <rect x="23.493" fill="#C9E8FB" width="8.18" y="25.898" height="0.027"/>
            <rect x="23.493" fill="#C9E8FB" width="8.18" y="26.727" height="4.373"/>
            <rect x="23.493" fill="#C9E8FB" width="8.18" y="9.95" height="4.525"/>
            <path fill="#0E3A5A"
                  d="M21.793,8.25v24.549h11.58V8.25H21.793z M31.672,14.475h-8.18V9.95h8.18V14.475z M31.672,20.251h-8.18  v-4.976h8.18V20.251z M23.493,26.727h8.18V31.1h-8.18V26.727z M31.672,25.926h-8.18v-0.027v-4.847h8.18v4.847V25.926z"/>
         </g>
         <rect x="319" y="159" fill="none" width="33" rx="4" ry="4" height="33"/>
         <text fill="black" x="297" xml:space="preserve" y="208" stroke="none">calc_customer_hk</text>
         <rect x="479" y="159" fill="white" width="33" rx="4" ry="4" height="33" stroke="none"/>
         <g xmlns:cc="http://creativecommons.org/ns#"
            xmlns:inkscape="http://www.inkscape.org/namespaces/inkscape"
            xmlns:rdf="http://www.w3.org/1999/02/22-rdf-syntax-ns#"
            xmlns:sodipodi="http://sodipodi.sourceforge.net/DTD/sodipodi-0.dtd"
            xmlns:dc="http://purl.org/dc/elements/1.1/"
            filename="selectvalues.svg"
            transform="translate(480 160) scale(0.762 0.762) rotate(0 21 21)"
            stroke="none">
            <g>
               <rect x="4.82" fill="none" width="32.36" y="31.389" height="3.991"/>
               <rect x="4.82" fill="none" width="15.33" y="6.62" height="3.991"/>
               <rect x="4.82" fill="none" width="15.33" y="23.133" height="3.991"/>
               <path fill="#0E3A5A"
                     d="M21.85,4.921H3.12v7.39h18.73V4.921z M20.15,10.611H4.82V6.62h15.33V10.611z"/>
               <rect x="4.82" fill="#C9E8FB" width="32.36" y="14.876" height="3.991"/>
               <path fill="#0E3A5A"
                     d="M3.12,13.177v7.39H38.88v-7.39H3.12z M37.18,18.867H4.82v-3.991h32.36V18.867z"/>
               <path fill="#0E3A5A"
                     d="M3.12,37.079H38.88v-7.39H3.12V37.079z M4.82,31.389h32.36v3.991H4.82V31.389z"/>
               <path fill="#0E3A5A"
                     d="M21.85,21.434H3.12v7.39h18.73V21.434z M20.15,27.124H4.82v-3.991h15.33V27.124z"/>
               <polygon fill="#EA102A"
                        points="25.948,12.587 28.847,9.688 31.745,12.587 33.089,11.243 30.19,8.345 33.089,5.446 31.745,4.103   28.847,7.001 25.948,4.103 24.604,5.446 27.503,8.345 24.604,11.243  "/>
               <polygon fill="#EA102A"
                        points="25.948,29.277 28.847,26.379 31.745,29.277 33.089,27.934 30.19,25.035 33.089,22.137   31.745,20.793 28.847,23.691 25.948,20.793 24.604,22.137 27.503,25.035 24.604,27.934  "/>
            </g>
         </g>
         <rect x="479" y="159" fill="none" width="33" rx="4" ry="4" height="33"/>
         <text fill="black" x="473" xml:space="preserve" y="208" stroke="none">hk plus attr</text>
         <rect x="639" y="159" fill="white" width="33" rx="4" ry="4" height="33" stroke="none"/>
         <g xmlns:cc="http://creativecommons.org/ns#"
            xmlns:inkscape="http://www.inkscape.org/namespaces/inkscape"
            xmlns:rdf="http://www.w3.org/1999/02/22-rdf-syntax-ns#"
            xmlns:sodipodi="http://sodipodi.sourceforge.net/DTD/sodipodi-0.dtd"
            xmlns:dc="http://purl.org/dc/elements/1.1/"
            filename="sortrows.svg"
            transform="translate(640 160) scale(0.762 0.762) rotate(0 21 21)"
            stroke="none">
            <g>
               <rect x="17.591" fill="#0E3A5A" width="17.305" y="10.838" height="1.699"/>
               <rect x="17.591" fill="#0E3A5A" width="14.305" y="17.187" height="1.699"/>
               <rect x="17.591" fill="#0E3A5A" width="11.305" y="23.534" height="1.699"/>
               <rect x="17.591" fill="#0E3A5A" width="8.305" y="29.882" height="1.699"/>
               <polygon fill="#0E3A5A"
                        points="11.673,25.339 7.105,25.339 13.302,31.537 13.316,10.462 11.71,10.462  "/>
            </g>
         </g>
         <rect x="639" y="159" fill="none" width="33" rx="4" ry="4" height="33"/>
         <text fill="black" x="619" xml:space="preserve" y="208" stroke="none">sort customer_hk</text>
         <rect x="159" y="319" fill="white" width="33" rx="4" ry="4" height="33" stroke="none"/>
         <g xmlns:cc="http://creativecommons.org/ns#"
            xmlns:inkscape="http://www.inkscape.org/namespaces/inkscape"
            xmlns:rdf="http://www.w3.org/1999/02/22-rdf-syntax-ns#"
            xmlns:sodipodi="http://sodipodi.sourceforge.net/DTD/sodipodi-0.dtd"
            xmlns:dc="http://purl.org/dc/elements/1.1/"
            filename="tableinput.svg"
            transform="translate(160 320) scale(0.762 0.762) rotate(0 21 21)"
            stroke="none">
            <g>
               <rect x="9.963" fill="none" width="6.758" y="17.386" height="7.411"/>
               <rect x="17.52" fill="none" width="7.412" y="17.386" height="7.411"/>
               <rect x="9.963" fill="none" width="6.758" y="25.597" height="6.75"/>
               <polygon fill="#0E3A5A"
                        points="37.235,32.836 37.235,35.918 32.011,30.693 30.667,32.037 35.892,37.263 32.747,37.263   32.748,39.164 39.135,39.161 39.135,32.836  "/>
               <polygon fill="#C9E8FB"
                        points="25.732,16.585 32.262,16.585 32.262,10.047 9.963,10.047 9.963,16.585 16.72,16.585 16.72,16.576   17.52,16.576 17.52,16.585 24.932,16.585 24.932,16.576 25.732,16.576  "/>
               <path fill="#0E3A5A"
                     d="M31.477,24.797h-5.745v-7.411h6.53v6.625l1.7-1.7V8.347h-25.7v25.699h13.964l1.699-1.699H17.52v-6.75h7.412   v5.744l0.8-0.8v-4.944h4.944L31.477,24.797z M16.72,32.347H9.963v-6.75h6.758V32.347z M16.72,24.797H9.963v-7.411h6.758V24.797z    M24.932,24.797H17.52v-7.411h7.412V24.797z M24.932,16.576v0.009H17.52v-0.009h-0.8v0.009H9.963v-6.538h22.3v6.538h-6.53v-0.009   H24.932z"/>
            </g>
         </g>
         <rect x="159" y="319" fill="none" width="33" rx="4" ry="4" height="33"/>
         <text fill="black" x="123" xml:space="preserve" y="368" stroke="none">target_sat_customer_led</text>
         <rect x="319" y="319" fill="white" width="33" rx="4" ry="4" height="33" stroke="none"/>
         <g xmlns:cc="http://creativecommons.org/ns#"
            xmlns:inkscape="http://www.inkscape.org/namespaces/inkscape"
            xmlns:rdf="http://www.w3.org/1999/02/22-rdf-syntax-ns#"
            xmlns:sodipodi="http://sodipodi.sourceforge.net/DTD/sodipodi-0.dtd"
            xmlns:dc="http://purl.org/dc/elements/1.1/"
            filename="groupby.svg"
            transform="translate(320 320) scale(0.762 0.762) rotate(0 21 21)"
            stroke="none">
            <g>
               <rect x="7.943" fill="none" width="11.396" y="28.05" height="5.131"/>
               <rect x="7.943" fill="none" width="11.396" y="14.916" height="5.824"/>
               <rect x="7.943" fill="none" width="11.396" y="21.541" height="5.708"/>
               <rect x="7.943" fill="none" width="11.396" y="8.731" height="5.385"/>
               <polygon fill="#0E3A5A"
                        points="36.857,25.256 36.857,22.609 26.862,22.609 32.124,28.837 26.862,35.064 36.857,35.064   36.857,32.397 35.158,32.397 35.158,33.365 30.524,33.365 34.349,28.837 30.524,24.309 35.158,24.309 35.158,25.256  "/>
               <path fill="#0E3A5A"
                     d="M6.244,34.88h14.795V7.031H6.244V34.88z M7.943,33.181V28.05H19.34v5.131H7.943z M19.34,21.541v5.708H7.943   v-5.708H19.34z M7.943,20.74v-5.824H19.34v5.824H7.943z M19.34,8.731v5.385H7.943V8.731H19.34z"/>
            </g>
         </g>
         <rect x="319" y="319" fill="none" width="33" rx="4" ry="4" height="33"/>
         <text fill="black" x="283" xml:space="preserve" y="368" stroke="none">group_last_customer_hk</text>
         <rect x="799" y="159" fill="white" width="33" rx="4" ry="4" height="33" stroke="none"/>
         <g xmlns:cc="http://creativecommons.org/ns#"
            xmlns:inkscape="http://www.inkscape.org/namespaces/inkscape"
            xmlns:rdf="http://www.w3.org/1999/02/22-rdf-syntax-ns#"
            xmlns:sodipodi="http://sodipodi.sourceforge.net/DTD/sodipodi-0.dtd"
            xmlns:dc="http://purl.org/dc/elements/1.1/"
            filename="constant.svg"
            transform="translate(800 160) scale(0.762 0.762) rotate(0 21 21)"
            stroke="none">
            <g>
               <rect x="11.65" fill="none" width="8.18" y="26.601" height="4.373"/>
               <rect x="11.65" fill="none" width="8.18" y="20.927" height="4.873"/>
               <rect x="11.65" fill="none" width="8.18" y="15.15" height="4.976"/>
               <path fill="#0E3A5A"
                     d="M28.679,16.673c0.868,0,1.628-0.369,2.272-1.083c0.336-0.373,0.649-0.871,0.942-1.489l0.078-0.163   l-0.529-0.321l-0.107,0.156c-0.289,0.425-0.539,0.721-0.752,0.901c-0.375,0.314-0.797,0.469-1.275,0.469   c-0.679,0-1.21-0.272-1.613-0.827c-0.41-0.572-0.614-1.217-0.614-1.939c0-0.804,0.189-1.424,0.549-1.88   c0.366-0.464,0.8-0.683,1.308-0.683c0.248,0,0.424,0.047,0.549,0.126c0.108,0.074,0.199,0.211,0.258,0.451l0.092,0.365   c0.067,0.258,0.18,0.475,0.348,0.63c0.172,0.152,0.377,0.233,0.605,0.233c0.281,0,0.527-0.084,0.693-0.286   c0.141-0.178,0.219-0.379,0.219-0.597c0-0.479-0.285-0.889-0.773-1.232c-0.494-0.356-1.079-0.53-1.748-0.53   c-1.068,0-1.961,0.401-2.662,1.198c-0.695,0.792-1.043,1.74-1.043,2.834c0,1.106,0.316,2.006,0.967,2.674   C27.081,16.336,27.829,16.673,28.679,16.673z"/>
               <polygon fill="#0E3A5A"
                        points="32.194,27.376 29.232,30.337 29.232,20.751 28.032,20.751 28.032,30.393 25.074,27.38   24.217,28.22 28.591,32.676 33.043,28.224  "/>
               <rect x="11.65" fill="#C9E8FB" width="8.18" y="9.823" height="4.526"/>
               <path fill="#0E3A5A"
                     d="M9.95,32.673h11.58V8.124H9.95V32.673z M11.65,20.927h8.18V25.8h-8.18V20.927z M11.65,20.126V15.15h8.18   v4.976H11.65z M19.83,14.35h-8.18V9.823h8.18V14.35z M11.65,30.974v-4.373h8.18v4.373H11.65z"/>
            </g>
         </g>
         <rect x="799" y="159" fill="none" width="33" rx="4" ry="4" height="33"/>
         <text fill="black" x="785" xml:space="preserve" y="208" stroke="none">add_x_load_ts</text>
         <rect x="479" y="319" fill="white" width="33" rx="4" ry="4" height="33" stroke="none"/>
         <g xmlns:cc="http://creativecommons.org/ns#"
            xmlns:inkscape="http://www.inkscape.org/namespaces/inkscape"
            xmlns:rdf="http://www.w3.org/1999/02/22-rdf-syntax-ns#"
            xmlns:sodipodi="http://sodipodi.sourceforge.net/DTD/sodipodi-0.dtd"
            xmlns:dc="http://purl.org/dc/elements/1.1/"
            filename="selectvalues.svg"
            transform="translate(480 320) scale(0.762 0.762) rotate(0 21 21)"
            stroke="none">
            <g>
               <rect x="4.82" fill="none" width="32.36" y="31.389" height="3.991"/>
               <rect x="4.82" fill="none" width="15.33" y="6.62" height="3.991"/>
               <rect x="4.82" fill="none" width="15.33" y="23.133" height="3.991"/>
               <path fill="#0E3A5A"
                     d="M21.85,4.921H3.12v7.39h18.73V4.921z M20.15,10.611H4.82V6.62h15.33V10.611z"/>
               <rect x="4.82" fill="#C9E8FB" width="32.36" y="14.876" height="3.991"/>
               <path fill="#0E3A5A"
                     d="M3.12,13.177v7.39H38.88v-7.39H3.12z M37.18,18.867H4.82v-3.991h32.36V18.867z"/>
               <path fill="#0E3A5A"
                     d="M3.12,37.079H38.88v-7.39H3.12V37.079z M4.82,31.389h32.36v3.991H4.82V31.389z"/>
               <path fill="#0E3A5A"
                     d="M21.85,21.434H3.12v7.39h18.73V21.434z M20.15,27.124H4.82v-3.991h15.33V27.124z"/>
               <polygon fill="#EA102A"
                        points="25.948,12.587 28.847,9.688 31.745,12.587 33.089,11.243 30.19,8.345 33.089,5.446 31.745,4.103   28.847,7.001 25.948,4.103 24.604,5.446 27.503,8.345 24.604,11.243  "/>
               <polygon fill="#EA102A"
                        points="25.948,29.277 28.847,26.379 31.745,29.277 33.089,27.934 30.19,25.035 33.089,22.137   31.745,20.793 28.847,23.691 25.948,20.793 24.604,22.137 27.503,25.035 24.604,27.934  "/>
            </g>
         </g>
         <rect x="479" y="319" fill="none" width="33" rx="4" ry="4" height="33"/>
         <text fill="black" x="447" xml:space="preserve" y="368" stroke="none">ref_load_date_as_date</text>
         <rect x="639" y="319" fill="white" width="33" rx="4" ry="4" height="33" stroke="none"/>
         <g xmlns:cc="http://creativecommons.org/ns#"
            xmlns:inkscape="http://www.inkscape.org/namespaces/inkscape"
            xmlns:rdf="http://www.w3.org/1999/02/22-rdf-syntax-ns#"
            xmlns:sodipodi="http://sodipodi.sourceforge.net/DTD/sodipodi-0.dtd"
            xmlns:dc="http://purl.org/dc/elements/1.1/"
            filename="org/apache/hop/images/dummy.svg"
            transform="translate(640 320) scale(0.762 0.762) rotate(0 21 21)"
            stroke="none">
            <g>
               <path fill="#C9E8FB"
                     d="M21.82,5.567c-5.882,0-10.773,4.897-10.905,10.915l-0.018,0.573l-2.54,6.025   c-0.055,0.125-0.083,0.292-0.052,0.357c0.014,0.028,0.067,0.069,0.161,0.107h2.436v4.343c0.002,0.107,0.083,2.772,3.472,3.73h4.844   v4.234h8.91V25.539l0.362-0.244c1.959-1.32,4.247-4.355,4.247-8.562C32.737,10.576,27.84,5.567,21.82,5.567z M13.953,19.177   c-0.8,0-1.449-0.649-1.449-1.449c0-0.8,0.649-1.449,1.449-1.449c0.801,0,1.449,0.649,1.449,1.449   C15.402,18.528,14.753,19.177,13.953,19.177z M23.761,21.945c-4.002,0-7.247-3.244-7.247-7.247c0-4.002,3.245-7.247,7.247-7.247   s7.247,3.245,7.247,7.247C31.007,18.701,27.763,21.945,23.761,21.945z"/>
               <path fill="#0E3A5A"
                     d="M21.82,3.924c-6.768,0-12.396,5.618-12.547,12.514l-0.008,0.261L6.86,22.406   c-0.043,0.09-0.411,0.899-0.057,1.697c0.156,0.35,0.506,0.817,1.293,1.051l1.163,0.034v2.7c0,1.405,1.001,4.331,4.792,5.345   l3.524,0.028v4.235h12.196V26.398c2.203-1.66,4.609-5.067,4.609-9.665C34.38,9.67,28.746,3.924,21.82,3.924z M28.491,25.295   l-0.362,0.244v10.314h-8.91v-4.234h-4.844c-3.389-0.958-3.47-3.623-3.472-3.73v-4.343H8.466c-0.094-0.038-0.147-0.079-0.161-0.107   c-0.03-0.065-0.003-0.232,0.052-0.357l2.54-6.025l0.018-0.573c0.131-6.018,5.023-10.915,10.905-10.915   c6.02,0,10.917,5.009,10.917,11.167C32.737,20.939,30.45,23.975,28.491,25.295z"/>
               <circle fill="#0E3A5A" r="1.449" cx="13.953" cy="17.728"/>
               <path fill="#FFFFFF"
                     d="M23.392,19.72v-4.652h-4.653C18.923,17.558,20.901,19.536,23.392,19.72z"/>
               <path fill="#FFFFFF"
                     d="M23.761,7.452c-4.002,0-7.247,3.245-7.247,7.247c0,4.002,3.245,7.247,7.247,7.247s7.247-3.244,7.247-7.247   C31.007,10.697,27.763,7.452,23.761,7.452z M29.538,15.068c-0.184,2.901-2.507,5.224-5.409,5.409v0.983h-0.738v-0.983   c-2.902-0.184-5.225-2.507-5.409-5.409H17V14.33h0.983c0.184-2.902,2.507-5.226,5.409-5.41V7.939h0.738v0.982   c2.902,0.184,5.225,2.508,5.409,5.41h0.983v0.738H29.538z"/>
               <path fill="#FFFFFF"
                     d="M24.13,9.678v4.653h4.652C28.598,11.839,26.62,9.861,24.13,9.678z"/>
               <path fill="#0E3A5A"
                     d="M29.538,14.33c-0.184-2.902-2.507-5.225-5.409-5.41V7.939h-0.738v0.982   c-2.902,0.184-5.225,2.508-5.409,5.41H17v0.738h0.983c0.184,2.901,2.507,5.225,5.409,5.409v0.983h0.738v-0.983   c2.901-0.184,5.224-2.507,5.409-5.409h0.983V14.33H29.538z M23.392,19.72c-2.491-0.184-4.469-2.162-4.653-4.652h4.653V19.72z    M24.13,14.33V9.678c2.49,0.184,4.468,2.162,4.652,4.653H24.13z"/>
            </g>
         </g>
         <rect x="639" y="319" fill="none" width="33" rx="4" ry="4" height="33"/>
         <text fill="black" x="621" xml:space="preserve" y="368" stroke="none">Merge reference</text>
         <rect x="959" y="159" fill="white" width="33" rx="4" ry="4" height="33" stroke="none"/>
         <g xmlns:cc="http://creativecommons.org/ns#"
            xmlns:inkscape="http://www.inkscape.org/namespaces/inkscape"
            xmlns:rdf="http://www.w3.org/1999/02/22-rdf-syntax-ns#"
            xmlns:sodipodi="http://sodipodi.sourceforge.net/DTD/sodipodi-0.dtd"
            xmlns:dc="http://purl.org/dc/elements/1.1/"
            filename="org/apache/hop/images/dummy.svg"
            transform="translate(960 160) scale(0.762 0.762) rotate(0 21 21)"
            stroke="none">
            <g>
               <path fill="#C9E8FB"
                     d="M21.82,5.567c-5.882,0-10.773,4.897-10.905,10.915l-0.018,0.573l-2.54,6.025   c-0.055,0.125-0.083,0.292-0.052,0.357c0.014,0.028,0.067,0.069,0.161,0.107h2.436v4.343c0.002,0.107,0.083,2.772,3.472,3.73h4.844   v4.234h8.91V25.539l0.362-0.244c1.959-1.32,4.247-4.355,4.247-8.562C32.737,10.576,27.84,5.567,21.82,5.567z M13.953,19.177   c-0.8,0-1.449-0.649-1.449-1.449c0-0.8,0.649-1.449,1.449-1.449c0.801,0,1.449,0.649,1.449,1.449   C15.402,18.528,14.753,19.177,13.953,19.177z M23.761,21.945c-4.002,0-7.247-3.244-7.247-7.247c0-4.002,3.245-7.247,7.247-7.247   s7.247,3.245,7.247,7.247C31.007,18.701,27.763,21.945,23.761,21.945z"/>
               <path fill="#0E3A5A"
                     d="M21.82,3.924c-6.768,0-12.396,5.618-12.547,12.514l-0.008,0.261L6.86,22.406   c-0.043,0.09-0.411,0.899-0.057,1.697c0.156,0.35,0.506,0.817,1.293,1.051l1.163,0.034v2.7c0,1.405,1.001,4.331,4.792,5.345   l3.524,0.028v4.235h12.196V26.398c2.203-1.66,4.609-5.067,4.609-9.665C34.38,9.67,28.746,3.924,21.82,3.924z M28.491,25.295   l-0.362,0.244v10.314h-8.91v-4.234h-4.844c-3.389-0.958-3.47-3.623-3.472-3.73v-4.343H8.466c-0.094-0.038-0.147-0.079-0.161-0.107   c-0.03-0.065-0.003-0.232,0.052-0.357l2.54-6.025l0.018-0.573c0.131-6.018,5.023-10.915,10.905-10.915   c6.02,0,10.917,5.009,10.917,11.167C32.737,20.939,30.45,23.975,28.491,25.295z"/>
               <circle fill="#0E3A5A" r="1.449" cx="13.953" cy="17.728"/>
               <path fill="#FFFFFF"
                     d="M23.392,19.72v-4.652h-4.653C18.923,17.558,20.901,19.536,23.392,19.72z"/>
               <path fill="#FFFFFF"
                     d="M23.761,7.452c-4.002,0-7.247,3.245-7.247,7.247c0,4.002,3.245,7.247,7.247,7.247s7.247-3.244,7.247-7.247   C31.007,10.697,27.763,7.452,23.761,7.452z M29.538,15.068c-0.184,2.901-2.507,5.224-5.409,5.409v0.983h-0.738v-0.983   c-2.902-0.184-5.225-2.507-5.409-5.409H17V14.33h0.983c0.184-2.902,2.507-5.226,5.409-5.41V7.939h0.738v0.982   c2.902,0.184,5.225,2.508,5.409,5.41h0.983v0.738H29.538z"/>
               <path fill="#FFFFFF"
                     d="M24.13,9.678v4.653h4.652C28.598,11.839,26.62,9.861,24.13,9.678z"/>
               <path fill="#0E3A5A"
                     d="M29.538,14.33c-0.184-2.902-2.507-5.225-5.409-5.41V7.939h-0.738v0.982   c-2.902,0.184-5.225,2.508-5.409,5.41H17v0.738h0.983c0.184,2.901,2.507,5.225,5.409,5.409v0.983h0.738v-0.983   c2.901-0.184,5.224-2.507,5.409-5.409h0.983V14.33H29.538z M23.392,19.72c-2.491-0.184-4.469-2.162-4.653-4.652h4.653V19.72z    M24.13,14.33V9.678c2.49,0.184,4.468,2.162,4.652,4.653H24.13z"/>
            </g>
         </g>
         <rect x="959" y="159" fill="none" width="33" rx="4" ry="4" height="33"/>
         <text fill="black" x="942" xml:space="preserve" y="208" stroke="none">Merge compare</text>
         <rect x="959" y="319" fill="white" width="33" rx="4" ry="4" height="33" stroke="none"/>
         <g xmlns:cc="http://creativecommons.org/ns#"
            xmlns:inkscape="http://www.inkscape.org/namespaces/inkscape"
            xmlns:rdf="http://www.w3.org/1999/02/22-rdf-syntax-ns#"
            xmlns:sodipodi="http://sodipodi.sourceforge.net/DTD/sodipodi-0.dtd"
            xmlns:dc="http://purl.org/dc/elements/1.1/"
            filename="mergerows.svg"
            transform="translate(960 320) scale(0.762 0.762) rotate(0 21 21)"
            stroke="none">
            <g>
               <rect x="4.283" fill="#FFFFFF" width="15.331" y="30.014" height="3.991"/>
               <rect x="4.283" fill="#FFFFFF" width="15.331" y="7.995" height="3.991"/>
               <rect x="29.229" fill="#FFFFFF" width="7.416" y="19.004" height="3.991"/>
               <rect x="21.313" fill="#FFFFFF" width="7.415" y="19.004" height="3.991"/>
               <path fill="#0E3A5A"
                     d="M29.379,17.305V9.59h-8.065V6.296H2.584v7.39h18.729v-3.295h7.265v6.914h-8.964v7.39h8.964v6.914h-7.265   v-3.294H2.584v7.39h18.729v-3.295h8.065v-7.715h8.965v-7.39H29.379z M19.614,11.986H4.283V7.995h15.331V11.986z M19.614,34.005   H4.283v-3.991h15.331V34.005z M28.728,22.995h-7.415v-3.991h7.415V22.995z M36.645,22.995h-7.416v-3.991h7.416V22.995z"/>
            </g>
         </g>
         <rect x="959" y="319" fill="none" width="33" rx="4" ry="4" height="33"/>
         <text fill="black" x="953" xml:space="preserve" y="368" stroke="none">merge_diff</text>
         <rect x="1119" y="319" fill="white" width="33" rx="4" ry="4" height="33"
               stroke="none"/>
         <g xmlns:cc="http://creativecommons.org/ns#"
            xmlns:inkscape="http://www.inkscape.org/namespaces/inkscape"
            xmlns:rdf="http://www.w3.org/1999/02/22-rdf-syntax-ns#"
            xmlns:sodipodi="http://sodipodi.sourceforge.net/DTD/sodipodi-0.dtd"
            xmlns:dc="http://purl.org/dc/elements/1.1/"
            filename="filterrows.svg"
            transform="translate(1120 320) scale(0.762 0.762) rotate(0 21 21)"
            stroke="none">
            <g>
               <path fill="none"
                     d="M8.492,15.107v7.013h12.74c-0.074-0.229-0.122-0.449-0.122-0.677c0-0.517,0.181-1.001,0.521-1.402   c0.207-0.244,0.472-0.458,0.81-0.649c0.489-0.278,1.153-0.521,1.972-0.719c1.538-0.372,3.565-0.576,5.707-0.576   c0.23,0,0.446,0.02,0.673,0.025v-3.014H8.492z"/>
               <polygon fill="none" points="8.492,29.87 25.308,29.87 21.816,23.319 8.492,23.319  "/>
               <rect x="8.492" fill="#C9E8FB" width="22.3" y="7.569" height="6.339"/>
               <polygon fill="#0E3A5A" points="27.366,31.569 27.701,31.569 27.62,31.434  "/>
               <path fill="#0E3A5A"
                     d="M8.492,29.87v-6.551h13.325l-0.479-0.899c-0.049-0.105-0.073-0.201-0.105-0.3H8.492v-7.013h22.3v3.014   c0.573,0.012,1.149,0.022,1.699,0.063V5.87h-25.7v25.699h19.422l-0.906-1.699H8.492z M30.792,13.908h-22.3V7.569h22.3V13.908z"/>
               <path fill="#FFF5E6"
                     d="M30.119,20.196c-4.161,0-6.688,0.781-7.035,1.251l0.239,0.402c0.915,0.469,3.201,1.041,6.796,1.041   c3.593,0,5.878-0.572,6.794-1.04l0.248-0.426C36.881,21.001,34.342,20.196,30.119,20.196z"/>
               <path fill="#FFF5E6"
                     d="M36.267,22.962c-1.788,0.55-4.436,0.729-6.148,0.729c-1.708,0-4.345-0.178-6.133-0.725l5.913,9.955v2.467   h0.574v-2.464L36.267,22.962z"/>
               <path fill="#FF9C04"
                     d="M34.548,19.336c-1.491-0.247-3.145-0.339-4.429-0.339c-3.065,0-8.252,0.515-8.252,2.446   c0,0.164,0.029,0.312,0.124,0.514l5.629,9.477l0.08,0.135l1,1.683v3.336h2.973v-3.339l6.606-11.369   c0.062-0.139,0.092-0.285,0.092-0.437C38.371,20.321,36.617,19.679,34.548,19.336z M30.474,35.389h-0.574v-2.467l-5.913-9.955   c1.788,0.547,4.425,0.725,6.133,0.725c1.712,0,4.36-0.179,6.148-0.729l-5.793,9.963V35.389z M36.914,21.851   c-0.916,0.468-3.201,1.04-6.794,1.04c-3.596,0-5.882-0.573-6.796-1.041l-0.239-0.402c0.348-0.47,2.874-1.251,7.035-1.251   c4.223,0,6.762,0.805,7.042,1.229L36.914,21.851z"/>
            </g>
         </g>
         <rect x="1119" y="319" fill="none" width="33" rx="4" ry="4" height="33"/>
         <text fill="black" x="1102" xml:space="preserve" y="368" stroke="none">new or changed</text>
         <rect x="1279" y="319" fill="white" width="33" rx="4" ry="4" height="33"
               stroke="none"/>
         <g xmlns:cc="http://creativecommons.org/ns#"
            xmlns:inkscape="http://www.inkscape.org/namespaces/inkscape"
            xmlns:rdf="http://www.w3.org/1999/02/22-rdf-syntax-ns#"
            xmlns:sodipodi="http://sodipodi.sourceforge.net/DTD/sodipodi-0.dtd"
            xmlns:dc="http://purl.org/dc/elements/1.1/"
            filename="constant.svg"
            transform="translate(1280 320) scale(0.762 0.762) rotate(0 21 21)"
            stroke="none">
            <g>
               <rect x="11.65" fill="none" width="8.18" y="26.601" height="4.373"/>
               <rect x="11.65" fill="none" width="8.18" y="20.927" height="4.873"/>
               <rect x="11.65" fill="none" width="8.18" y="15.15" height="4.976"/>
               <path fill="#0E3A5A"
                     d="M28.679,16.673c0.868,0,1.628-0.369,2.272-1.083c0.336-0.373,0.649-0.871,0.942-1.489l0.078-0.163   l-0.529-0.321l-0.107,0.156c-0.289,0.425-0.539,0.721-0.752,0.901c-0.375,0.314-0.797,0.469-1.275,0.469   c-0.679,0-1.21-0.272-1.613-0.827c-0.41-0.572-0.614-1.217-0.614-1.939c0-0.804,0.189-1.424,0.549-1.88   c0.366-0.464,0.8-0.683,1.308-0.683c0.248,0,0.424,0.047,0.549,0.126c0.108,0.074,0.199,0.211,0.258,0.451l0.092,0.365   c0.067,0.258,0.18,0.475,0.348,0.63c0.172,0.152,0.377,0.233,0.605,0.233c0.281,0,0.527-0.084,0.693-0.286   c0.141-0.178,0.219-0.379,0.219-0.597c0-0.479-0.285-0.889-0.773-1.232c-0.494-0.356-1.079-0.53-1.748-0.53   c-1.068,0-1.961,0.401-2.662,1.198c-0.695,0.792-1.043,1.74-1.043,2.834c0,1.106,0.316,2.006,0.967,2.674   C27.081,16.336,27.829,16.673,28.679,16.673z"/>
               <polygon fill="#0E3A5A"
                        points="32.194,27.376 29.232,30.337 29.232,20.751 28.032,20.751 28.032,30.393 25.074,27.38   24.217,28.22 28.591,32.676 33.043,28.224  "/>
               <rect x="11.65" fill="#C9E8FB" width="8.18" y="9.823" height="4.526"/>
               <path fill="#0E3A5A"
                     d="M9.95,32.673h11.58V8.124H9.95V32.673z M11.65,20.927h8.18V25.8h-8.18V20.927z M11.65,20.126V15.15h8.18   v4.976H11.65z M19.83,14.35h-8.18V9.823h8.18V14.35z M11.65,30.974v-4.373h8.18v4.373H11.65z"/>
            </g>
         </g>
         <rect x="1279" y="319" fill="none" width="33" rx="4" ry="4" height="33"/>
         <text fill="black" x="1252" xml:space="preserve" y="368" stroke="none">open_x_load_end_ts</text>
         <rect x="1439" y="319" fill="white" width="33" rx="4" ry="4" height="33"
               stroke="none"/>
         <g xmlns:cc="http://creativecommons.org/ns#"
            xmlns:inkscape="http://www.inkscape.org/namespaces/inkscape"
            xmlns:rdf="http://www.w3.org/1999/02/22-rdf-syntax-ns#"
            xmlns:sodipodi="http://sodipodi.sourceforge.net/DTD/sodipodi-0.dtd"
            xmlns:dc="http://purl.org/dc/elements/1.1/"
            filename="tableoutput.svg"
            transform="translate(1440 320) scale(0.762 0.762) rotate(0 21 21)"
            stroke="none">
            <g>
               <rect x="17.431" fill="none" width="7.412" y="25.876" height="6.75"/>
               <rect x="17.431" fill="none" width="7.412" y="17.664" height="7.411"/>
               <rect x="9.874" fill="none" width="6.758" y="25.876" height="6.75"/>
               <rect x="25.643" fill="none" width="6.53" y="17.664" height="7.411"/>
               <rect x="25.643" fill="none" width="6.53" y="25.876" height="6.75"/>
               <polygon fill="#0E3A5A"
                        points="5.375,12.264 11.763,12.263 11.763,5.936 9.862,5.936 9.862,9.019 4.639,3.795 3.295,5.138   8.519,10.364 5.375,10.364  "/>
               <polygon fill="#C9E8FB"
                        points="16.631,16.854 17.431,16.854 17.431,16.863 24.843,16.863 24.843,16.854 25.643,16.854   25.643,16.863 32.173,16.863 32.173,10.325 17.402,10.325 10.864,16.863 16.631,16.863  "/>
               <path fill="#0E3A5A"
                     d="M19.101,8.626l-1.699,1.699h14.772v6.538h-6.53v-0.009h-0.8v0.009h-7.412v-0.009h-0.8v0.009h-5.768   l-0.801,0.801h6.569v7.411H9.874v-7.222l-1.7,1.7v14.772h25.7V8.626H19.101z M16.631,32.626H9.874v-6.75h6.758V32.626z    M24.843,32.626h-7.412v-6.75h7.412V32.626z M24.843,25.075h-7.412v-7.411h7.412V25.075z M32.173,32.626h-6.53v-6.75h6.53V32.626z    M32.173,25.075h-6.53v-7.411h6.53V25.075z"/>
            </g>
         </g>
         <rect x="1439" y="319" fill="none" width="33" rx="4" ry="4" height="33"/>
         <text fill="black" x="1399" xml:space="preserve" y="368" stroke="none">write_to_sat_customer_led</text>
         <rect x="1599" y="319" fill="white" width="33" rx="4" ry="4" height="33"
               stroke="none"/>
         <g xmlns:cc="http://creativecommons.org/ns#"
            xmlns:inkscape="http://www.inkscape.org/namespaces/inkscape"
            xmlns:rdf="http://www.w3.org/1999/02/22-rdf-syntax-ns#"
            xmlns:sodipodi="http://sodipodi.sourceforge.net/DTD/sodipodi-0.dtd"
            xmlns:dc="http://purl.org/dc/elements/1.1/"
            filename="filterrows.svg"
            transform="translate(1600 320) scale(0.762 0.762) rotate(0 21 21)"
            stroke="none">
            <g>
               <path fill="none"
                     d="M8.492,15.107v7.013h12.74c-0.074-0.229-0.122-0.449-0.122-0.677c0-0.517,0.181-1.001,0.521-1.402   c0.207-0.244,0.472-0.458,0.81-0.649c0.489-0.278,1.153-0.521,1.972-0.719c1.538-0.372,3.565-0.576,5.707-0.576   c0.23,0,0.446,0.02,0.673,0.025v-3.014H8.492z"/>
               <polygon fill="none" points="8.492,29.87 25.308,29.87 21.816,23.319 8.492,23.319  "/>
               <rect x="8.492" fill="#C9E8FB" width="22.3" y="7.569" height="6.339"/>
               <polygon fill="#0E3A5A" points="27.366,31.569 27.701,31.569 27.62,31.434  "/>
               <path fill="#0E3A5A"
                     d="M8.492,29.87v-6.551h13.325l-0.479-0.899c-0.049-0.105-0.073-0.201-0.105-0.3H8.492v-7.013h22.3v3.014   c0.573,0.012,1.149,0.022,1.699,0.063V5.87h-25.7v25.699h19.422l-0.906-1.699H8.492z M30.792,13.908h-22.3V7.569h22.3V13.908z"/>
               <path fill="#FFF5E6"
                     d="M30.119,20.196c-4.161,0-6.688,0.781-7.035,1.251l0.239,0.402c0.915,0.469,3.201,1.041,6.796,1.041   c3.593,0,5.878-0.572,6.794-1.04l0.248-0.426C36.881,21.001,34.342,20.196,30.119,20.196z"/>
               <path fill="#FFF5E6"
                     d="M36.267,22.962c-1.788,0.55-4.436,0.729-6.148,0.729c-1.708,0-4.345-0.178-6.133-0.725l5.913,9.955v2.467   h0.574v-2.464L36.267,22.962z"/>
               <path fill="#FF9C04"
                     d="M34.548,19.336c-1.491-0.247-3.145-0.339-4.429-0.339c-3.065,0-8.252,0.515-8.252,2.446   c0,0.164,0.029,0.312,0.124,0.514l5.629,9.477l0.08,0.135l1,1.683v3.336h2.973v-3.339l6.606-11.369   c0.062-0.139,0.092-0.285,0.092-0.437C38.371,20.321,36.617,19.679,34.548,19.336z M30.474,35.389h-0.574v-2.467l-5.913-9.955   c1.788,0.547,4.425,0.725,6.133,0.725c1.712,0,4.36-0.179,6.148-0.729l-5.793,9.963V35.389z M36.914,21.851   c-0.916,0.468-3.201,1.04-6.794,1.04c-3.596,0-5.882-0.573-6.796-1.041l-0.239-0.402c0.348-0.47,2.874-1.251,7.035-1.251   c4.223,0,6.762,0.805,7.042,1.229L36.914,21.851z"/>
            </g>
         </g>
         <rect x="1599" y="319" fill="none" width="33" rx="4" ry="4" height="33"/>
         <text fill="black" x="1564" xml:space="preserve" y="368" stroke="none">has_previous_load_date</text>
         <rect x="1759" y="319" fill="white" width="33" rx="4" ry="4" height="33"
               stroke="none"/>
         <g xmlns:cc="http://creativecommons.org/ns#"
            xmlns:inkscape="http://www.inkscape.org/namespaces/inkscape"
            xmlns:rdf="http://www.w3.org/1999/02/22-rdf-syntax-ns#"
            xmlns:sodipodi="http://sodipodi.sourceforge.net/DTD/sodipodi-0.dtd"
            xmlns:dc="http://purl.org/dc/elements/1.1/"
            filename="update.svg"
            transform="translate(1760 320) scale(0.762 0.762) rotate(0 21 21)"
            stroke="none">
            <g>
               <path fill="#5CC0C4"
                     d="M20.974,32.55c-5.731,0-10.487-4.199-11.385-9.681l3.145,2.042l1.035-1.594L7.982,19.56l-3.758,5.787   l1.594,1.035l1.933-2.977C8.89,29.676,14.379,34.45,20.974,34.45c5.037,0,9.613-2.797,11.944-7.3l-1.687-0.873   C29.228,30.146,25.297,32.55,20.974,32.55z"/>
               <path fill="#5CC0C4"
                     d="M36.182,15.62l-1.975,3.042C33.095,12.359,27.591,7.55,20.974,7.55c-4.818,0-9.296,2.602-11.688,6.79   l1.65,0.941c2.054-3.597,5.9-5.831,10.037-5.831c5.719,0,10.467,4.181,11.379,9.645l-3.087-2.004l-1.035,1.594l5.787,3.758   l3.758-5.787L36.182,15.62z"/>
            </g>
         </g>
         <rect x="1759" y="319" fill="none" width="33" rx="4" ry="4" height="33"/>
         <text fill="black" x="1724" xml:space="preserve" y="368" stroke="none">close_sat_customer_led</text>
      </g>
   </g>
</svg>