<?xml version="1.0" encoding="utf-8"?>
<!--
  - Licensed to the Apache Software Foundation (ASF) under one or more
  - contributor license agreements.  See the NOTICE file distributed with
  - this work for additional information regarding copyright ownership.
  - The ASF licenses this file to You under the Apache License, Version 2.0
  - (the "License"); you may not use this file except in compliance with
  - the License.  You may obtain a copy of the License at
  -
  -      http://www.apache.org/licenses/LICENSE-2.0
  -
  - Unless required by applicable law or agreed to in writing, software
  - distributed under the License is distributed on an "AS IS" BASIS,
  - WITHOUT WARRANTIES OR CONDITIONS OF ANY KIND, either express or implied.
  - See the License for the specific language governing permissions and
  - limitations under the License.
  -
  -->
<svg xmlns="http://www.w3.org/2000/svg" width="16" height="16" viewBox="0 0 16 16">
    <g transform="translate(0.2,0.4) scale(0.82)">
        <path fill="#0E3A5A" d="M1.448,9.916v2.823c0,1.56,2.95,2.823,6.588,2.823c3.638,0,6.588-1.265,6.588-2.823V9.916
            c0,1.561-2.95,2.823-6.588,2.823C4.398,12.739,1.448,11.477,1.448,9.916z"/>
        <path fill="#0E3A5A" d="M1.448,5.21v2.824c0,1.559,2.95,2.823,6.588,2.823c3.638,0,6.588-1.265,6.588-2.823V5.21
            c0,1.56-2.95,2.824-6.588,2.824C4.398,8.034,1.448,6.77,1.448,5.21z"/>
        <path fill="#0E3A5A" d="M14.625,3.328c0,1.56-2.95,2.823-6.588,2.823c-3.639,0-6.588-1.264-6.588-2.823s2.95-2.823,6.588-2.823
            C11.675,0.504,14.625,1.769,14.625,3.328z"/>
    </g>
    <path fill="#C9E8FB" fill-rule="evenodd" d="M13.7,13.7l1.8,1.8l-1.1,1.1l-1.8-1.8c-1,0.8-2.4,0.7-3.4-0.3
        c-1.2-1.2-1.2-3.1,0-4.3c1.2-1.2,3.1-1.2,4.3,0C14.4,11.2,14.5,12.6,13.7,13.7z
        M10.7,8.1c-1.4,0-2.5,1.1-2.5,2.5s1.1,2.5,2.5,2.5s2.5-1.1,2.5-2.5S12.1,8.1,10.7,8.1z"/>
</svg>