<?xml version="1.0" encoding="UTF-8" standalone="no"?>
<svg version="1.1"
     x="0px" y="0px" width="42px" height="42px" viewBox="0 0 42 42" enable-background="new 0 0 42 42"
     xmlns="http://www.w3.org/2000/svg">
    <g>
        <polygon fill="#0E3A5A"
                 points="9.666,33.276 24.583,18.358 26.259,20.037 26.964,14.932 21.862,15.634 23.382,17.156   8.561,31.977 8.56,8.728 10.853,8.73 7.741,4.62 4.63,8.725 6.86,8.727 6.86,34.977 21.524,34.974 23.224,33.274  "/>
    </g>
    <path fill="#0e3a5a"
          d="m 30.053672,37.827684 c 0,0.826554 0.676272,1.502825 1.502826,1.502825 h 6.011299 c 0.826554,0 1.502825,-0.676271 1.502825,-1.502825 v -9.016949 h -9.01695 z M 39.822034,26.556497 H 37.19209 l -0.751412,-0.751412 h -3.757062 l -0.751413,0.751412 H 29.30226 v 1.502825 h 10.519774 z"
          style="stroke-width:0.751412"/>
</svg>
